<?xml version="1.0" encoding="UTF-8"?>
<svg width="1024px" height="1024px" viewBox="0 0 1024 1024" version="1.1" xmlns="http://www.w3.org/2000/svg" xmlns:xlink="http://www.w3.org/1999/xlink">
    <!-- Generator: Sketch 41.2 (35397) - http://www.bohemiancoding.com/sketch -->
    <title>windows</title>
    <desc>Created with Sketch.</desc>
    <defs></defs>
    <g id="Page-1" stroke="none" stroke-width="1" fill="none" fill-rule="evenodd">
        <g id="windows">
            <path d="M511.792392,1023.58378 C228.47837,1023.58378 0,795.10541 0,511.791389 C0,228.47837 228.47837,0 511.792392,0 C795.106413,0 1023.58478,228.47837 1023.58478,511.791389 C1023.58478,795.10541 795.106413,1023.58378 511.792392,1023.58378 Z" id="Shape" fill="#263238"></path>
            <path d="M240.25086,514.10617 L445.492153,514.10617 L445.492153,302.024838 L240.25086,343.073097 L240.25086,514.10617 L240.25086,514.10617 Z M240.25086,719.348466 L445.492153,760.395722 L445.492153,548.313387 L240.25086,548.313387 L240.25086,719.348466 L240.25086,719.348466 Z M479.698366,514.10617 L753.354092,514.10617 L753.354092,240.452451 L479.698366,295.18179 L479.698366,514.10617 L479.698366,514.10617 Z M479.698366,767.236764 L753.354092,821.96811 L753.354092,548.313387 L479.698366,548.313387 L479.698366,767.236764 Z" id="Shape" fill="#FFFFFF"></path>
        </g>
    </g>
</svg>