<?xml version="1.0" encoding="UTF-8"?>
<svg width="96px" height="96px" viewBox="0 0 96 96" version="1.1" xmlns="http://www.w3.org/2000/svg" xmlns:xlink="http://www.w3.org/1999/xlink">
    <!-- Generator: Sketch 41.2 (35397) - http://www.bohemiancoding.com/sketch -->
    <title>windows</title>
    <desc>Created with Sketch.</desc>
    <defs></defs>
    <g id="Page-1" stroke="none" stroke-width="1" fill="none" fill-rule="evenodd">
        <g id="windows">
            <path d="M47.9805367,95.9609794 C21.4198472,95.9609794 0,74.5411322 0,47.9804427 C0,21.4198472 21.4198472,0 47.9805367,0 C74.5412262,0 95.9610731,21.4198472 95.9610731,47.9804427 C95.9610731,74.5411322 74.5412262,95.9609794 47.9805367,95.9609794 Z" id="Shape" fill="#212121"></path>
            <path d="M22.5235181,48.1974534 L41.7648893,48.1974534 L41.7648893,28.3148286 L22.5235181,32.1631028 L22.5235181,48.1974534 L22.5235181,48.1974534 Z M22.5235181,67.4389187 L41.7648893,71.2870989 L41.7648893,51.40438 L22.5235181,51.40438 L22.5235181,67.4389187 L22.5235181,67.4389187 Z M44.9717218,48.1974534 L70.6269461,48.1974534 L70.6269461,22.5424173 L44.9717218,27.6732928 L44.9717218,48.1974534 L44.9717218,48.1974534 Z M44.9717218,71.9284466 L70.6269461,77.0595103 L70.6269461,51.40438 L44.9717218,51.40438 L44.9717218,71.9284466 Z" id="Shape" fill="#FFFFFF"></path>
        </g>
    </g>
</svg>